<?xml version="1.0" standalone="no"?>
<!DOCTYPE svg PUBLIC "-//W3C//DTD SVG 20010904//EN"
 "http://www.w3.org/TR/2001/REC-SVG-20010904/DTD/svg10.dtd">
<svg version="1.0" xmlns="http://www.w3.org/2000/svg"
 width="500.000000pt" height="500.000000pt" viewBox="0 0 500.000000 500.000000"
 preserveAspectRatio="xMidYMid meet">
<metadata>
Created by potrace 1.14, written by Peter Selinger 2001-2017
</metadata>
<g transform="translate(0.000000,500.000000) scale(0.100000,-0.100000)"
fill="#000000" stroke="none">
<path d="M427 4993 c-3 -5 -7 -29 -11 -54 -4 -25 -10 -65 -13 -90 -9 -61 -9
-310 0 -389 10 -92 25 -171 52 -275 13 -50 26 -135 29 -190 3 -55 7 -109 10
-120 2 -11 12 -54 20 -95 18 -83 50 -171 77 -210 13 -19 17 -41 14 -79 -3 -60
8 -99 48 -158 26 -41 28 -47 23 -130 -5 -90 -28 -297 -41 -373 -2 -14 -7 -45
-9 -70 -11 -100 -65 -290 -92 -321 -8 -8 -14 -21 -14 -28 0 -6 -4 -17 -10 -24
-5 -7 -36 -46 -68 -87 -86 -111 -173 -188 -210 -187 -19 1 -28 6 -25 14 3 7 9
13 15 13 5 0 7 -4 4 -9 -7 -11 21 -8 31 4 4 4 3 5 -4 1 -7 -4 -18 2 -25 14 -7
11 -16 20 -21 20 -4 0 -5 -4 -2 -10 3 -5 1 -10 -4 -10 -16 0 -13 27 3 33 8 3
21 -4 29 -16 9 -13 14 -16 13 -6 0 16 -36 55 -36 39 0 -19 -16 -10 -17 10 -1
13 2 18 10 13 7 -3 4 3 -6 14 -9 11 -14 23 -11 26 4 4 -1 9 -10 13 -14 5 -14
9 -4 23 12 15 11 15 -7 0 -33 -26 -43 -30 -51 -18 -4 7 -3 9 3 6 6 -4 16 0 23
8 10 12 10 15 0 15 -8 0 -10 3 -7 6 3 4 1 16 -5 28 -7 11 -11 25 -9 31 1 5 -1
6 -5 2 -12 -12 -14 -38 -2 -31 7 4 8 2 4 -4 -4 -7 -3 -12 2 -12 5 0 9 -7 9
-15 0 -8 -3 -13 -5 -10 -3 3 -10 0 -17 -5 -8 -7 -12 -5 -12 5 0 8 4 12 9 9 4
-3 8 0 8 5 0 6 -3 11 -8 11 -4 0 -13 9 -20 21 -8 12 -9 18 -3 14 15 -9 14 8
-2 24 -9 11 -9 13 1 7 8 -5 12 -1 12 11 0 11 5 24 12 31 9 9 9 12 0 12 -7 0
-12 -4 -12 -10 0 -5 -4 -10 -10 -10 -5 0 -7 7 -4 15 5 11 2 14 -12 9 -11 -4
-16 -4 -13 0 4 4 17 9 29 11 12 2 25 7 29 11 3 4 -1 5 -9 2 -9 -3 -25 1 -35 9
-19 15 -19 15 2 8 31 -9 48 2 32 21 -14 17 -29 18 -29 3 0 -5 4 -8 9 -4 5 3
12 1 16 -5 3 -5 0 -10 -7 -10 -15 0 -48 20 -34 20 6 0 1 7 -10 16 -18 14 -18
15 4 4 19 -9 22 -8 22 10 0 14 4 19 13 14 6 -4 -6 14 -28 42 -22 27 -32 43
-22 35 21 -16 22 -3 2 23 -8 11 -15 24 -15 30 0 5 7 1 15 -10 10 -13 14 -14
15 -5 0 11 3 11 15 1 10 -9 15 -9 15 -1 0 10 -13 15 -32 12 -3 0 -5 7 -3 17 1
9 -3 21 -9 25 -7 6 -6 7 4 4 8 -2 14 -10 12 -16 -1 -7 2 -10 7 -6 6 3 7 13 4
23 -6 15 -5 16 12 2 17 -14 17 -14 4 7 -9 16 -16 19 -21 10 -4 -7 -6 -2 -5 12
1 14 10 27 23 31 24 10 43 32 23 28 -7 -2 -13 2 -14 9 0 6 -3 14 -7 18 -9 9
-5 -16 5 -32 5 -8 4 -13 -2 -13 -6 0 -11 3 -12 8 0 4 -2 15 -4 24 -4 24 12 33
33 16 16 -12 16 -11 2 7 -8 11 -16 22 -17 24 -1 2 -9 -2 -17 -8 -10 -8 -16 -9
-21 -1 -4 6 -1 9 7 8 8 -2 12 5 11 19 -1 12 5 24 14 27 13 5 14 4 4 -8 -9 -11
-8 -15 5 -20 24 -9 31 -7 14 4 -12 8 -13 12 -2 19 10 6 6 11 -18 19 -17 7 -29
16 -25 22 3 5 8 10 11 10 3 0 2 -4 -1 -10 -3 -5 -2 -10 4 -10 5 0 18 -3 28 -6
14 -5 15 -4 4 4 -8 6 -14 27 -14 49 0 21 -5 42 -11 46 -7 5 -3 7 9 5 13 -2 19
2 17 11 -2 8 3 11 13 8 22 -9 18 1 -6 14 -15 7 -19 8 -15 0 5 -7 1 -9 -11 -5
-15 5 -16 4 -3 -5 12 -9 12 -11 1 -11 -18 0 -40 31 -34 47 4 10 8 9 18 -4 11
-15 15 -15 30 -3 15 12 19 11 37 -10 11 -14 17 -19 13 -12 -4 7 -1 20 7 29 9
12 9 15 0 9 -6 -4 -12 -3 -12 2 0 6 7 13 16 16 8 3 12 10 9 16 -3 5 -2 10 4
10 6 0 8 7 5 15 -4 8 -11 12 -18 8 -6 -4 -4 2 4 12 8 10 10 16 3 12 -19 -12
-25 10 -7 27 8 9 12 16 7 16 -5 0 -14 -5 -19 -10 -7 -7 -11 -6 -11 3 0 8 9 14
21 13 15 -1 20 -8 19 -21 -1 -19 -1 -19 12 -1 8 10 18 15 23 12 5 -3 8 6 6 20
-2 21 0 23 12 13 8 -7 14 -8 13 -3 -4 17 14 49 39 72 14 12 20 22 14 22 -7 0
-4 8 6 18 9 11 19 18 22 16 3 -1 7 7 7 18 1 12 19 37 40 56 21 19 29 29 18 21
-17 -11 -17 -10 3 12 12 14 19 29 15 34 -5 4 0 5 9 2 10 -3 17 -3 17 1 -3 19
2 33 10 27 5 -3 8 10 6 30 -2 28 -1 33 8 23 7 -7 11 -11 9 -9 -1 3 10 13 25
23 16 10 24 18 19 18 -5 0 -3 6 3 14 9 11 9 16 0 22 -8 4 -9 3 -5 -4 4 -7 2
-12 -3 -12 -6 0 -11 6 -11 13 0 8 -3 7 -10 -3 -6 -9 -5 -20 3 -30 10 -13 10
-13 -5 -2 -11 9 -18 10 -23 2 -3 -5 -11 -10 -18 -10 -6 0 -1 7 11 16 12 8 22
19 22 25 0 5 -9 1 -20 -8 -11 -10 -29 -25 -39 -35 -11 -9 -22 -14 -25 -11 -3
4 -6 1 -6 -5 0 -7 -7 -12 -16 -12 -9 0 -12 -5 -8 -12 6 -10 5 -10 -8 0 -12 10
-18 9 -28 -3 -7 -8 -16 -13 -20 -10 -4 3 -13 -2 -20 -10 -8 -9 -8 -15 -2 -15
6 0 13 5 15 10 3 6 4 5 3 -2 -2 -7 -11 -12 -22 -11 -10 1 -25 -7 -35 -18 -9
-10 -18 -16 -21 -14 -3 3 -11 -2 -19 -12 -12 -14 -12 -16 0 -8 9 5 12 4 7 -3
-4 -6 -14 -8 -23 -5 -12 5 -14 3 -8 -7 6 -10 4 -12 -8 -7 -11 4 -17 1 -17 -8
0 -8 -6 -15 -13 -15 -8 0 -26 -13 -40 -30 -15 -16 -32 -30 -38 -30 -5 0 -7 -4
-4 -10 4 -6 -1 -7 -11 -3 -13 5 -16 2 -12 -9 4 -10 1 -15 -10 -14 -16 1 -17
-92 -19 -1306 -2 -1227 0 -1364 23 -1304 3 9 12 12 21 9 12 -5 14 -3 8 8 -5 8
2 5 15 -6 13 -11 20 -14 16 -7 -5 8 0 12 14 12 12 0 18 -4 15 -10 -3 -6 1 -7
9 -4 9 3 13 11 10 18 -4 6 5 -1 18 -17 28 -30 40 -35 31 -11 -3 9 6 4 21 -10
14 -15 26 -31 26 -36 0 -10 13 -14 42 -11 14 2 18 -5 18 -28 0 -17 5 -31 10
-31 6 0 10 -9 10 -19 0 -11 5 -23 10 -26 6 -3 10 -11 10 -16 0 -6 -5 -7 -12
-3 -7 4 -8 3 -4 -4 4 -7 14 -12 22 -12 8 0 14 -4 14 -10 0 -5 -7 -10 -16 -10
-8 0 -13 -4 -9 -9 3 -5 -4 -16 -16 -24 -15 -11 -17 -16 -7 -20 9 -4 7 -6 -4
-6 -10 -1 -18 -7 -18 -15 0 -22 -49 -50 -65 -36 -10 8 -14 7 -18 -7 -4 -17 -5
-17 -6 0 0 10 -5 16 -11 12 -5 -3 -6 -13 -3 -23 6 -16 5 -15 -11 1 -15 15 -21
16 -34 5 -10 -9 -13 -9 -9 -1 4 6 3 14 -3 18 -5 3 -10 1 -10 -4 0 -15 -27 -14
-36 1 -5 7 -2 9 7 4 8 -4 3 1 -11 12 -13 11 -29 18 -35 14 -5 -3 -4 1 3 10 10
13 9 15 -13 10 -25 -4 -25 -6 -25 -104 0 -83 3 -99 14 -95 11 4 13 -1 10 -20
-4 -21 -2 -24 8 -15 10 7 18 6 32 -4 11 -8 16 -14 11 -14 -4 0 2 -8 13 -19 12
-10 18 -22 14 -26 -4 -5 0 -6 9 -2 11 3 16 0 15 -10 0 -9 7 -17 16 -18 11 -2
15 2 12 13 -3 10 2 6 10 -8 8 -14 15 -19 16 -12 0 10 5 10 22 1 20 -10 21 -10
11 2 -9 11 -7 14 12 14 13 0 21 -3 19 -7 -5 -8 49 6 68 18 10 6 10 5 0 -8 -10
-13 -10 -18 -1 -24 7 -4 10 -3 6 2 -3 5 6 14 19 21 13 6 22 8 19 3 -3 -4 2
-11 11 -14 8 -3 13 -2 10 3 -9 14 20 21 34 8 10 -9 11 -9 6 1 -4 6 -2 12 3 12
6 0 11 -6 11 -12 0 -9 4 -8 10 2 5 8 10 10 10 3 0 -6 9 -9 20 -6 16 4 18 1 15
-18 -3 -12 -7 -53 -10 -91 l-6 -68 2266 0 2265 0 0 694 0 694 -26 109 c-14 59
-28 119 -31 133 -9 54 -125 503 -163 635 -23 77 -43 150 -46 161 -6 30 -130
388 -142 410 -6 11 -11 24 -11 29 -1 10 -33 90 -103 255 -63 150 -148 314
-194 376 l-42 57 23 25 c24 26 46 92 40 121 -8 37 -25 70 -46 84 -18 13 -20
20 -12 44 12 36 9 83 -9 118 -13 25 -11 33 34 123 26 54 49 113 49 132 6 144
-97 327 -225 399 -60 34 -101 44 -173 42 -48 -1 -53 1 -54 22 -1 12 -1 26 0
30 2 9 -17 159 -23 192 -3 11 -8 41 -12 68 l-7 47 -244 -2 -243 -3 -34 -95
c-36 -106 -47 -131 -117 -276 -39 -81 -57 -106 -92 -132 -44 -31 -139 -121
-189 -180 -15 -17 -33 -30 -40 -27 -51 17 -414 26 -553 12 -185 -18 -427 -60
-616 -107 -84 -21 -189 -66 -189 -81 0 -5 -28 20 -61 56 -34 36 -68 65 -75 65
-18 0 -99 94 -189 220 -116 161 -196 333 -251 538 -3 9 -62 12 -253 12 -137 0
-252 -3 -254 -7z m-93 -1388 c-4 -8 -11 -15 -16 -15 -6 0 -5 6 2 15 7 8 14 15
16 15 2 0 1 -7 -2 -15z m-204 -145 c0 -5 -5 -10 -11 -10 -5 0 -7 5 -4 10 3 6
8 10 11 10 2 0 4 -4 4 -10z m-105 -520 c3 -5 1 -10 -4 -10 -6 0 -11 5 -11 10
0 6 2 10 4 10 3 0 8 -4 11 -10z m25 -136 c0 -8 -19 -13 -24 -6 -3 5 1 9 9 9 8
0 15 -2 15 -3z m-6 -213 c-2 -3 -12 3 -22 13 -16 17 -16 18 5 5 12 -7 20 -15
17 -18z m20 -26 c-4 -8 -8 -15 -10 -15 -2 0 -4 7 -4 15 0 8 4 15 10 15 5 0 7
-7 4 -15z m114 -303 c0 -4 1 -9 2 -12 1 -3 3 -15 4 -26 2 -22 -15 -27 -31 -9
-4 4 -2 5 5 1 6 -4 12 -2 12 3 0 6 -6 11 -14 11 -18 0 -27 25 -14 38 11 11 38
6 36 -6z m-1 -78 c-3 -3 -12 -4 -19 -1 -8 3 -5 6 6 6 11 1 17 -2 13 -5z m463
-57 c0 -2 -27 -31 -59 -66 -33 -34 -63 -71 -66 -81 -4 -11 -10 -20 -14 -20 -5
0 -14 -15 -22 -32 -7 -18 -19 -37 -26 -41 -7 -5 -10 -14 -7 -20 4 -7 3 -8 -1
-4 -16 14 -14 37 3 37 8 0 13 3 9 6 -10 10 -48 -7 -41 -18 4 -6 2 -8 -4 -4 -5
3 -13 0 -16 -6 -3 -7 -4 -4 -3 7 1 12 -3 19 -11 17 -8 -1 -11 2 -7 8 3 6 -4
14 -16 18 -23 9 -35 52 -15 52 13 1 -24 24 -38 25 -5 0 -10 9 -12 21 -4 26 39
47 155 78 69 18 191 33 191 23z m-351 -104 c-1 -5 0 -10 1 -13 1 -3 3 -13 5
-23 3 -14 0 -16 -10 -7 -11 9 -13 25 -6 48 2 6 11 1 10 -5z m37 -48 c1 -8 -1
-17 -5 -19 -4 -3 -8 7 -9 21 -2 27 10 25 14 -2z m401 -380 c13 -16 15 -17 10
-2 -4 9 -3 17 2 17 16 0 18 -11 6 -56 -11 -44 -25 -58 -34 -33 -2 6 1 9 6 6 5
-3 10 0 10 8 0 8 -4 15 -9 15 -4 0 -8 -5 -8 -11 0 -5 -4 -8 -10 -4 -5 3 -7 12
-4 20 3 7 -4 19 -16 25 -18 10 -21 9 -17 -2 2 -7 10 -12 16 -10 6 1 11 -2 11
-8 0 -5 -6 -10 -12 -10 -9 0 -8 -4 2 -10 8 -5 10 -10 5 -10 -6 0 -11 -9 -11
-20 0 -11 6 -20 14 -20 7 0 10 -5 7 -10 -4 -6 -10 -8 -15 -5 -5 3 -12 0 -16
-6 -4 -7 -3 -9 3 -6 8 5 11 -35 3 -53 -1 -3 -2 -8 -1 -12 0 -5 -4 -8 -10 -8
-5 0 -8 -4 -4 -9 3 -6 -3 -14 -12 -20 -13 -8 -14 -10 -4 -11 11 0 9 -4 -5 -15
-19 -15 -19 -15 1 -9 16 5 17 4 5 -5 -20 -14 -31 -14 -28 2 1 6 -3 23 -10 37
-12 23 -12 24 2 6 9 -11 16 -14 16 -8 0 7 7 12 16 12 8 0 13 4 9 10 -3 5 -12
7 -19 4 -7 -3 -19 3 -27 13 -12 16 -12 17 1 7 19 -14 52 -14 47 0 -2 6 -13 10
-23 8 -18 -2 -18 -2 -2 11 10 8 14 18 10 23 -4 4 0 3 10 -4 10 -8 19 -9 22 -3
4 5 -3 12 -14 16 -11 3 -20 10 -20 15 0 5 7 6 17 3 10 -4 14 -2 9 5 -3 6 -2
13 4 17 5 3 10 11 10 17 0 6 -7 5 -17 -3 -15 -11 -14 -10 1 9 20 23 9 31 -12
10 -9 -9 -12 -9 -12 0 0 7 5 12 11 12 5 0 7 5 4 10 -4 6 -11 7 -17 4 -7 -5 -8
-2 -3 5 5 9 10 10 18 2 19 -19 31 -12 13 8 -15 17 -15 19 -1 25 9 3 14 9 11
14 -11 18 47 6 61 -13z m-5 -132 c-4 -10 -7 -28 -6 -41 1 -17 -3 -22 -14 -17
-11 4 -12 2 -5 -7 22 -28 -3 -83 -33 -71 -22 8 -8 38 17 35 18 -1 20 0 10 7
-17 11 -24 41 -10 41 5 0 7 10 5 23 -2 12 3 29 11 39 10 11 11 18 4 23 -6 3
-11 13 -11 22 0 11 6 8 21 -10 14 -19 17 -32 11 -44z m-102 -9 c0 -2 -7 -4
-15 -4 -8 0 -15 4 -15 10 0 5 7 7 15 4 8 -4 15 -8 15 -10z m65 -168 c-4 -11
-7 -30 -6 -41 0 -11 -3 -15 -7 -9 -4 6 -14 13 -22 16 -22 8 -24 56 -2 60 30 7
44 -3 37 -26z"/>
<path d="M145 2261 c-3 -6 5 -15 17 -21 21 -10 21 -10 6 3 -10 8 -15 17 -11
20 3 4 4 7 0 7 -3 0 -8 -4 -12 -9z"/>
<path d="M356 1958 c3 -4 0 -8 -7 -8 -7 0 -10 -2 -7 -5 7 -7 38 5 38 14 0 4
-7 8 -15 8 -8 0 -12 -4 -9 -9z"/>
<path d="M382 1942 c-9 -7 -8 -13 8 -27 18 -16 20 -16 26 -1 4 9 4 20 0 23 -3
4 -6 -1 -6 -11 0 -10 -5 -14 -11 -11 -6 4 -8 13 -5 21 6 16 5 17 -12 6z"/>
<path d="M683 1602 c-8 -5 -2 -13 18 -24 l29 -17 -16 25 c-9 13 -17 24 -18 24
0 0 -6 -4 -13 -8z"/>
<path d="M646 1418 c3 -5 10 -6 15 -3 13 9 11 12 -6 12 -8 0 -12 -4 -9 -9z"/>
<path d="M700 1465 c-7 -9 -8 -15 -2 -15 5 0 12 7 16 15 3 8 4 15 2 15 -2 0
-9 -7 -16 -15z"/>
<path d="M667 1349 c7 -7 15 -10 18 -7 3 3 -2 9 -12 12 -14 6 -15 5 -6 -5z"/>
<path d="M645 1290 c-4 -6 1 -7 12 -4 16 5 16 4 -1 -10 -11 -9 -15 -16 -9 -16
14 0 34 25 26 33 -9 10 -21 9 -28 -3z"/>
<path d="M114 3045 c-4 -8 -11 -12 -17 -8 -6 3 -7 1 -3 -5 10 -16 14 -15 26 8
6 11 8 20 5 20 -3 0 -8 -7 -11 -15z"/>
<path d="M104 2992 c0 -10 6 -19 13 -19 8 0 9 6 2 19 -5 10 -11 18 -12 18 -2
0 -3 -8 -3 -18z"/>
<path d="M60 2786 c0 -2 9 -6 20 -9 11 -3 18 -1 14 4 -5 9 -34 13 -34 5z"/>
<path d="M54 2645 c0 -14 4 -25 9 -25 10 0 9 38 -2 44 -5 3 -8 -5 -7 -19z"/>
<path d="M80 2546 c0 -2 7 -7 16 -10 8 -3 12 -2 9 4 -6 10 -25 14 -25 6z"/>
<path d="M104 2395 c-18 -14 -18 -14 4 -8 12 3 22 9 22 14 0 12 -3 11 -26 -6z"/>
</g>
</svg>
